<?xml version="1.0" encoding="UTF-8" standalone="no"?>
<!-- Created with Inkscape (http://www.inkscape.org/) -->
<svg xmlns:a="http://ns.adobe.com/AdobeSVGViewerExtensions/3.0/" xmlns:dc="http://purl.org/dc/elements/1.1/" xmlns:cc="http://web.resource.org/cc/" xmlns:rdf="http://www.w3.org/1999/02/22-rdf-syntax-ns#" xmlns:svg="http://www.w3.org/2000/svg" xmlns="http://www.w3.org/2000/svg" xmlns:xlink="http://www.w3.org/1999/xlink" xmlns:sodipodi="http://sodipodi.sourceforge.net/DTD/sodipodi-0.dtd" xmlns:inkscape="http://www.inkscape.org/namespaces/inkscape" version="1.0" width="48pt" height="48pt" viewBox="0 0 256 256" id="svg2" xml:space="preserve" sodipodi:version="0.32" inkscape:version="0.45.1" sodipodi:docname="Nuvola_United_Kingdom_flag.svg" sodipodi:docbase="/home/federico/Desktop/Flags" inkscape:output_extension="org.inkscape.output.svg.inkscape"><metadata id="metadata45"><rdf:RDF><cc:Work rdf:about=""><dc:format>image/svg+xml</dc:format><dc:type rdf:resource="http://purl.org/dc/dcmitype/StillImage"/></cc:Work></rdf:RDF></metadata><sodipodi:namedview inkscape:window-height="963" inkscape:window-width="1272" inkscape:pageshadow="2" inkscape:pageopacity="0.0" guidetolerance="10.0" gridtolerance="10.0" objecttolerance="10.0" borderopacity="1.0" bordercolor="#666666" pagecolor="#ffffff" id="base" inkscape:zoom="5.4627048" inkscape:cx="30" inkscape:cy="30" inkscape:window-x="0" inkscape:window-y="25" inkscape:current-layer="svg2"/><defs id="defs271"><linearGradient x1="87.396973" y1="141.97266" x2="240.94727" y2="141.97266" id="XMLID_22_" gradientUnits="userSpaceOnUse" gradientTransform="matrix(1.56769, 0, 0, 1.56769, -129.371, -94.5678)">
								<stop style="stop-color: rgb(255, 255, 255); stop-opacity: 0.666667;" offset="0" id="stop139"/>
								
								<stop style="stop-color: rgb(215, 215, 215); stop-opacity: 0.21875;" offset="0.24074516" id="stop143"/>
								<stop style="stop-color: rgb(77, 77, 77); stop-opacity: 0;" offset="0.4585622" id="stop145"/><stop style="stop-color: rgb(255, 255, 255); stop-opacity: 0.510417;" offset="0.71891773" id="stop3696"/><stop style="stop-color: rgb(242, 242, 242); stop-opacity: 0.4;" offset="0.87351298" id="stop2807"/><stop style="stop-color: rgb(255, 255, 255); stop-opacity: 0.623529;" offset="1" id="stop3694"/>
								
								
								<a:midPointStop style="stop-color:#E9E9EF" offset="0"/>
								<a:midPointStop style="stop-color:#E9E9EF" offset="0.5"/>
								<a:midPointStop style="stop-color:#B1B1C5" offset="0.157303"/>
								<a:midPointStop style="stop-color:#B1B1C5" offset="0.5"/>
								<a:midPointStop style="stop-color:#CECEDB" offset="0.314607"/>
								<a:midPointStop style="stop-color:#CECEDB" offset="0.5"/>
								<a:midPointStop style="stop-color:#FFFFFF" offset="0.65"/>
								<a:midPointStop style="stop-color:#FFFFFF" offset="0.5"/>
								<a:midPointStop style="stop-color:#CECEDB" offset="0.837079"/>
								<a:midPointStop style="stop-color:#CECEDB" offset="0.5"/>
								<a:midPointStop style="stop-color:#FFFF66" offset="1"/>
							</linearGradient><linearGradient inkscape:collect="always" xlink:href="#XMLID_22_" id="linearGradient3188" gradientUnits="userSpaceOnUse" gradientTransform="matrix(1.56769, 0, 0, 1.56769, -129.371, -94.5696)" x1="87.396973" y1="141.97266" x2="269.33331" y2="141.97276"/><linearGradient y2="123.21392" x2="132.62358" y1="151.1393" x1="133.17909" gradientUnits="userSpaceOnUse" id="linearGradient2192" xlink:href="#XMLID_17_" inkscape:collect="always"/><linearGradient x1="126.18921" y1="39.617504" x2="126.18921" y2="112.30453" id="XMLID_17_" gradientUnits="userSpaceOnUse" gradientTransform="matrix(1.56769, 0, 0, 1.56769, -69.8258, 15.2274)">
								<stop style="stop-color: rgb(194, 0, 190); stop-opacity: 1;" offset="0" id="stop18"/>
								<stop style="stop-color: rgb(194, 0, 190); stop-opacity: 1;" offset="0.19460699" id="stop20"/>
								<stop style="stop-color: rgb(16, 0, 174); stop-opacity: 1;" offset="0.31460699" id="stop22"/>
								<stop style="stop-color: rgb(16, 0, 174); stop-opacity: 1;" offset="0.72999996" id="stop24"/>
								<stop style="stop-color: rgb(0, 218, 182); stop-opacity: 1;" offset="0.85707897" id="stop26"/>
								<stop style="stop-color: rgb(0, 218, 182); stop-opacity: 1;" offset="1" id="stop28"/>
								<a:midPointStop style="stop-color:#CF0000" offset="0"/>
								<a:midPointStop style="stop-color:#CF0000" offset="0.5"/>
								<a:midPointStop style="stop-color:#7C0000" offset="0.157303"/>
								<a:midPointStop style="stop-color:#7C0000" offset="0.5"/>
								<a:midPointStop style="stop-color:#CF0000" offset="0.314607"/>
								<a:midPointStop style="stop-color:#CF0000" offset="0.5"/>
								<a:midPointStop style="stop-color:#B80000" offset="0.65"/>
								<a:midPointStop style="stop-color:#B80000" offset="0.5"/>
								<a:midPointStop style="stop-color:#CF0000" offset="0.837079"/>
								<a:midPointStop style="stop-color:#CF0000" offset="0.5"/>
								<a:midPointStop style="stop-color:#FF0000" offset="1"/>
							</linearGradient><linearGradient inkscape:collect="always" xlink:href="#XMLID_17_" id="linearGradient2470" gradientUnits="userSpaceOnUse" x1="133.17909" y1="151.1393" x2="132.62358" y2="123.21392"/><linearGradient inkscape:collect="always" xlink:href="#XMLID_17_" id="linearGradient2487" gradientUnits="userSpaceOnUse" x1="133.17909" y1="151.1393" x2="132.62358" y2="123.21392" gradientTransform="translate(-310.63, 4.27452)"/></defs>
	
		
	



<g id="g2201"><path d="M 248.36055,32.472022 C 167.27229,-10.429768 86.183274,85.849332 5.0950169,40.005058 C 2.2811336,38.417463 1.7853684e-05,39.212792 1.7853684e-05,42.029738 C 1.7853684e-05,99.343119 1.7853684e-05,156.65726 1.7853684e-05,213.97064 C 1.7853684e-05,216.78146 2.2811336,220.54913 5.0950169,222.13519 C 87.031416,268.46019 168.96859,169.6711 250.90499,215.99533 C 253.71887,217.58215 255.99999,216.78759 255.99999,213.97064 C 255.99999,156.65726 255.99999,99.343119 255.99999,42.029738 C 255.99999,39.218915 253.71887,35.452015 250.90499,33.864421 C 250.05685,33.385234 249.2087,32.921355 248.36055,32.472022 z " style="fill: rgb(77, 77, 77);" id="path15"/><path d="M 248.36055,37.567021 C 248.36055,39.421 233.46901,27.361714 211.05133,26.512802 C 188.63516,24.161264 158.69592,33.018571 128.59899,41.939411 C 98.502062,50.838819 68.2505,59.830085 45.210481,57.499214 C 22.170459,56.646475 6.3427413,44.472367 5.0950169,45.100057 C 5.0950169,49.976129 5.0950169,212.16336 5.0950169,217.04096 C 6.3297279,216.23874 22.002055,228.52232 44.892808,229.4363 C 67.782795,231.83529 97.891978,222.86699 128.00038,213.92855 C 158.10957,204.99929 188.21874,196.07231 211.10797,198.49122 C 233.99872,199.42357 249.67104,211.70178 250.90499,210.90033 C 250.90499,206.02272 250.90499,43.835492 250.90499,38.95942 C 249.63124,38.236811 248.36055,37.567021 248.36055,37.567021 z " style="fill: rgb(0, 36, 125); fill-opacity: 1;" id="path30"/><polyline id="polyline3117" points="0,256 0,0 256,0 256,256" style="fill: none;"/><path sodipodi:nodetypes="ccccccc" d="M 7.5989333,201.37002 C 7.5989333,207.28326 7.5989333,210.24395 7.5989333,215.84547 C 14.495123,219.60885 24.520561,223.65051 36.269035,225.88994 C 93.188814,194.79225 182.00217,74.363433 248.39895,54.096041 C 248.39895,48.405911 248.39895,45.893354 248.39895,39.890874 C 243.28963,36.737497 231.93576,33.337766 225.47588,31.309634 C 166.12151,61.273196 62.825441,187.02777 7.5989333,201.37002 z " style="fill: rgb(255, 255, 255); fill-opacity: 1;" id="path2202"/><path sodipodi:nodetypes="ccccccc" d="M 7.5989333,69.763719 C 7.5989333,63.307062 7.5989333,53.926086 7.5989333,48.421293 C 14.74193,52.554883 24.788468,55.639773 34.661594,58.682923 C 76.649946,116.29302 212.36371,121.2136 248.39895,185.77504 C 248.39895,196.20694 248.39895,198.12249 248.39895,207.02967 C 243.28963,203.87629 227.12036,198.85564 220.12873,196.97944 C 167.31359,137.06938 35.724062,127.00085 7.5989333,69.763719 z " style="fill: rgb(255, 255, 255); fill-opacity: 1;" id="path5112"/><path sodipodi:nodetypes="ccccccc" d="M 7.5989333,62.174338 C 7.5989333,55.717681 7.5989333,53.816121 7.5989333,48.311328 C 42.135626,93.676906 68.382721,103.96396 128.15429,127.24759 C 174.22232,129.44202 223.58283,156.80085 248.39895,193.48447 C 248.39895,203.91637 248.39895,198.01253 248.39895,206.91971 C 210.99215,162.96951 169.66484,138.2304 125.95609,133.97439 C 85.719965,125.06035 28.58462,97.313201 7.5989333,62.174338 z " style="fill: rgb(227, 0, 28); fill-opacity: 1;" id="path7346"/><path sodipodi:nodetypes="ccccccc" d="M 119.79017,124.44619 C 83.660145,163.44384 70.297286,186.08631 7.5989333,215.75565 C 14.495123,219.51903 20.011659,221.62831 26.478269,223.48126 C 72.59769,199.4961 104.87197,157.7656 125.32856,130.84021 C 158.29361,103.41123 193.74439,64.330575 248.39895,39.801047 C 243.28963,36.64767 240.18061,35.953282 233.72073,33.92515 C 189.70002,57.507468 153.92412,93.458947 119.79017,124.44619 z " style="fill: rgb(227, 0, 28); fill-opacity: 1;" id="path8317"/><path sodipodi:nodetypes="ccccc" d="M 7.5989333,101.71098 C 7.5989333,107.62422 7.5989333,154.77612 7.5989333,160.37764 C 87.838283,201.07989 168.16037,111.13914 248.39895,151.84431 C 248.39895,146.15418 248.39895,98.913467 248.39895,92.910987 C 168.419,50.426327 86.052373,144.71973 7.5989333,101.71098 z " style="fill: rgb(255, 255, 255); fill-opacity: 1;" id="path2442"/><path sodipodi:nodetypes="ccccc" d="M 99.294396,53.13674 C 99.294396,59.04998 99.186501,214.67395 99.186501,220.27547 C 118.72383,214.66091 138.38379,208.16585 152.37593,203.89951 C 152.37593,198.20938 152.43509,43.068833 152.43509,37.066353 C 141.83636,40.395001 113.74774,49.275652 99.294396,53.13674 z " style="fill: rgb(255, 255, 255); fill-opacity: 1;" id="path4435"/><path sodipodi:nodetypes="ccccc" d="M 111.29346,49.6756 C 111.29346,55.58884 111.25878,211.03606 111.25878,216.63758 C 118.24667,214.73482 136.0772,209.00698 140.8782,207.4803 C 140.8782,201.79017 140.93736,46.679952 140.93736,40.677472 C 129.45487,44.094496 116.99755,48.200672 111.29346,49.6756 z " style="fill: rgb(227, 0, 28); fill-opacity: 1;" id="path4437"/><path sodipodi:nodetypes="ccccc" d="M 7.5989333,113.19875 C 7.5989333,119.112 7.5989333,142.71179 7.5989333,148.31331 C 87.838283,189.01556 168.16037,98.262669 248.39895,138.96784 C 248.39895,133.27771 248.39895,110.40124 248.39895,104.39875 C 168.419,61.914098 86.052373,156.20751 7.5989333,113.19875 z " style="fill: rgb(227, 0, 28); fill-opacity: 1;" id="path9466"/><g id="layer1" style="display: inline;"><path id="path3186" style="fill: url(#linearGradient3188) rgb(0, 0, 0);" d="M 248.35974,206.96001 C 168.11962,164.50832 87.879509,258.33713 7.6401612,215.88544 C 7.6401612,160.27066 7.6401612,104.65509 7.6401612,49.039546 C 87.879509,91.490468 168.11962,-2.3375794 248.35974,40.114878 C 248.35974,95.729664 248.35974,151.34523 248.35974,206.96001 z "/></g></g></svg>