<?xml version="1.0" encoding="UTF-8" standalone="no"?>
<!-- Created with Inkscape (http://www.inkscape.org/) -->
<svg xmlns:a="http://ns.adobe.com/AdobeSVGViewerExtensions/3.0/" xmlns:dc="http://purl.org/dc/elements/1.1/" xmlns:cc="http://web.resource.org/cc/" xmlns:rdf="http://www.w3.org/1999/02/22-rdf-syntax-ns#" xmlns:svg="http://www.w3.org/2000/svg" xmlns="http://www.w3.org/2000/svg" xmlns:xlink="http://www.w3.org/1999/xlink" xmlns:sodipodi="http://sodipodi.sourceforge.net/DTD/sodipodi-0.dtd" xmlns:inkscape="http://www.inkscape.org/namespaces/inkscape" version="1.0" width="48pt" height="48pt" viewBox="0 0 256 256" id="svg2" xml:space="preserve" sodipodi:version="0.32" inkscape:version="0.45.1" sodipodi:docname="Nuvola_Mongolian_flag.svg" sodipodi:docbase="/home/federico/Desktop/Flags/To fix" inkscape:output_extension="org.inkscape.output.svg.inkscape"><metadata id="metadata45"><rdf:RDF><cc:Work rdf:about=""><dc:format>image/svg+xml</dc:format><dc:type rdf:resource="http://purl.org/dc/dcmitype/StillImage"/></cc:Work></rdf:RDF></metadata><sodipodi:namedview inkscape:window-height="963" inkscape:window-width="1272" inkscape:pageshadow="2" inkscape:pageopacity="0.0" guidetolerance="10.0" gridtolerance="10.0" objecttolerance="10.0" borderopacity="1.0" bordercolor="#666666" pagecolor="#ffffff" id="base" inkscape:zoom="12.55" inkscape:cx="30" inkscape:cy="30" inkscape:window-x="0" inkscape:window-y="25" inkscape:current-layer="svg2" showguides="true" inkscape:guide-bbox="true"/><defs id="defs271"><linearGradient x1="87.396973" y1="141.97266" x2="240.94727" y2="141.97266" id="XMLID_22_" gradientUnits="userSpaceOnUse" gradientTransform="matrix(1.56769, 0, 0, 1.56769, -129.371, -94.5678)">
								<stop style="stop-color: rgb(255, 255, 255); stop-opacity: 0.666667;" offset="0" id="stop139"/>
								
								<stop style="stop-color: rgb(215, 215, 215); stop-opacity: 0.21875;" offset="0.24074516" id="stop143"/>
								<stop style="stop-color: rgb(77, 77, 77); stop-opacity: 0;" offset="0.4585622" id="stop145"/><stop style="stop-color: rgb(255, 255, 255); stop-opacity: 0.510417;" offset="0.71891773" id="stop3696"/><stop style="stop-color: rgb(242, 242, 242); stop-opacity: 0.4;" offset="0.87351298" id="stop2807"/><stop style="stop-color: rgb(255, 255, 255); stop-opacity: 0.623529;" offset="1" id="stop3694"/>
								
								
								<a:midPointStop style="stop-color:#E9E9EF" offset="0"/>
								<a:midPointStop style="stop-color:#E9E9EF" offset="0.5"/>
								<a:midPointStop style="stop-color:#B1B1C5" offset="0.157303"/>
								<a:midPointStop style="stop-color:#B1B1C5" offset="0.5"/>
								<a:midPointStop style="stop-color:#CECEDB" offset="0.314607"/>
								<a:midPointStop style="stop-color:#CECEDB" offset="0.5"/>
								<a:midPointStop style="stop-color:#FFFFFF" offset="0.65"/>
								<a:midPointStop style="stop-color:#FFFFFF" offset="0.5"/>
								<a:midPointStop style="stop-color:#CECEDB" offset="0.837079"/>
								<a:midPointStop style="stop-color:#CECEDB" offset="0.5"/>
								<a:midPointStop style="stop-color:#FFFF66" offset="1"/>
							</linearGradient><linearGradient x1="87.396973" y1="141.97266" x2="269.33331" y2="141.97276" id="linearGradient1945" xlink:href="#XMLID_22_" gradientUnits="userSpaceOnUse" gradientTransform="matrix(1.56769, 0, 0, 1.56769, -129.371, -94.5696)"/><clipPath id="clip"><circle cy="-39" r="46" id="circle4744"/></clipPath>
							
						<linearGradient spreadMethod="pad" xlink:href="#XMLID_23_" gradientTransform="matrix(1.56769, 0, 0, 1.56769, -129.371, -94.5678)" x1="189.81445" y1="135.51855" x2="240.94727" y2="135.51855" id="XMLID_24_" gradientUnits="userSpaceOnUse">
								<stop style="stop-color: rgb(111, 207, 0); stop-opacity: 1;" offset="0" id="stop163"/>
								<stop style="stop-color: rgb(44, 169, 0); stop-opacity: 1;" offset="0.55618012" id="stop165"/>
								<stop style="stop-color: rgb(51, 204, 51); stop-opacity: 1;" offset="1" id="stop167"/>
								<a:midPointStop style="stop-color:#6FCF00" offset="0"/>
								<a:midPointStop style="stop-color:#6FCF00" offset="0.5"/>
								<a:midPointStop style="stop-color:#2CA900" offset="0.5561801"/>
								<a:midPointStop style="stop-color:#2CA900" offset="0.5"/>
								<a:midPointStop style="stop-color:#33CC33" offset="1"/>
							</linearGradient>
							
							
								<linearGradient gradientTransform="matrix(1.56769, 0, 0, 1.56769, -129.371, -94.5678)" x1="87.396973" y1="148.42578" x2="138.53125" y2="148.42578" id="XMLID_23_" gradientUnits="userSpaceOnUse">
								<stop style="stop-color: rgb(255, 102, 102); stop-opacity: 1;" offset="0" id="stop154"/>
								<stop style="stop-color: rgb(207, 0, 0); stop-opacity: 1;" offset="0.46629199" id="stop156"/>
								<stop style="stop-color: rgb(255, 0, 0); stop-opacity: 1;" offset="1" id="stop158"/>
								<a:midPointStop style="stop-color:#FF6666" offset="0"/>
								<a:midPointStop style="stop-color:#FF6666" offset="0.5"/>
								<a:midPointStop style="stop-color:#CF0000" offset="0.466292"/>
								<a:midPointStop style="stop-color:#CF0000" offset="0.5"/>
								<a:midPointStop style="stop-color:#FF0000" offset="1"/>
							</linearGradient>
							
							
								<linearGradient gradientTransform="matrix(1.56769, 0, 0, 1.56769, -129.371, -94.5678)" x1="87.396973" y1="141.97266" x2="240.94727" y2="141.97266" id="linearGradient3087" gradientUnits="userSpaceOnUse">
								<stop style="stop-color: black; stop-opacity: 0.117647;" offset="0" id="stop3089"/>
								<stop style="stop-color: black; stop-opacity: 0.34902;" offset="0.15730301" id="stop141"/>
								<stop style="stop-color: black; stop-opacity: 0.235294;" offset="0.31460699" id="stop3092"/>
								<stop style="stop-color: black; stop-opacity: 0.505155;" offset="0.64999998" id="stop3094"/>
								<stop style="stop-color: black; stop-opacity: 0;" offset="1" id="stop147"/>
								
								<a:midPointStop style="stop-color:#E9E9EF" offset="0"/>
								<a:midPointStop style="stop-color:#E9E9EF" offset="0.5"/>
								<a:midPointStop style="stop-color:#B1B1C5" offset="0.157303"/>
								<a:midPointStop style="stop-color:#B1B1C5" offset="0.5"/>
								<a:midPointStop style="stop-color:#CECEDB" offset="0.314607"/>
								<a:midPointStop style="stop-color:#CECEDB" offset="0.5"/>
								<a:midPointStop style="stop-color:#FFFFFF" offset="0.65"/>
								<a:midPointStop style="stop-color:#FFFFFF" offset="0.5"/>
								<a:midPointStop style="stop-color:#CECEDB" offset="0.837079"/>
								<a:midPointStop style="stop-color:#CECEDB" offset="0.5"/>
								<a:midPointStop style="stop-color:#FFFF66" offset="1"/>
							</linearGradient>
							
							
								<linearGradient gradientTransform="matrix(-1.56769, 0, 0, -1.56769, 385.371, 350.53)" x1="89.159668" y1="141.95996" x2="269.1944" y2="141.95996" id="XMLID_21_" gradientUnits="userSpaceOnUse">
								<stop style="stop-color: rgb(220, 23, 28); stop-opacity: 1;" offset="0" id="stop84"/><stop id="stop2808" offset="0.19" style="stop-color: rgb(220, 23, 28); stop-opacity: 1;"/>
								
								
								
								
								
								
								
								
								
								
								
								
								
								
								<stop style="stop-color: rgb(71, 174, 207); stop-opacity: 1;" offset="0.30000001" id="stop114"/><stop id="stop2810" offset="0.5" style="stop-color: rgb(71, 174, 207); stop-opacity: 1;"/><stop style="stop-color: rgb(220, 23, 28); stop-opacity: 1;" offset="0.625" id="stop2798"/>
								
								
								
								
								
								
								
								
								
								<stop style="stop-color: rgb(220, 23, 28); stop-opacity: 1;" offset="1" id="stop134"/>
								<a:midPointStop style="stop-color:#7C0000" offset="0"/>
								<a:midPointStop style="stop-color:#7C0000" offset="0.641026"/>
								<a:midPointStop style="stop-color:#CF0000" offset="0.224719"/>
								<a:midPointStop style="stop-color:#CF0000" offset="0.13"/>
								<a:midPointStop style="stop-color:#FFFFFF" offset="0.5"/>
								<a:midPointStop style="stop-color:#FFFFFF" offset="0.7297301"/>
								<a:midPointStop style="stop-color:#009933" offset="0.58427"/>
								<a:midPointStop style="stop-color:#009933" offset="0.5"/>
								<a:midPointStop style="stop-color:#006A00" offset="1"/>
							</linearGradient>
			
			
		
				
				
			
					
					
				
						
					
							
							
								<linearGradient gradientUnits="userSpaceOnUse" id="linearGradient2788" y2="148.42578" x2="138.53125" y1="148.42578" x1="87.396973" gradientTransform="matrix(1.56769, 0, 0, 1.56769, -129.371, -94.5678)">
								<stop id="stop2790" offset="0" style="stop-color: rgb(102, 102, 255); stop-opacity: 1;"/>
								<stop id="stop2792" offset="0.46629199" style="stop-color: rgb(0, 0, 207); stop-opacity: 1;"/>
								<stop id="stop2794" offset="1" style="stop-color: rgb(41, 41, 255); stop-opacity: 1;"/>
								<a:midPointStop offset="0" style="stop-color:#FF6666"/>
								<a:midPointStop offset="0.5" style="stop-color:#FF6666"/>
								<a:midPointStop offset="0.466292" style="stop-color:#CF0000"/>
								<a:midPointStop offset="0.5" style="stop-color:#CF0000"/>
								<a:midPointStop offset="1" style="stop-color:#FF0000"/>
							</linearGradient><linearGradient y2="141.97276" x2="269.33331" y1="141.97266" x1="87.396973" gradientTransform="matrix(1.56769, 0, 0, 1.56769, -129.371, -94.5696)" gradientUnits="userSpaceOnUse" id="linearGradient3074" xlink:href="#XMLID_22_" inkscape:collect="always"/><linearGradient inkscape:collect="always" xlink:href="#XMLID_22_" id="linearGradient3129" gradientUnits="userSpaceOnUse" gradientTransform="matrix(1.56769, 0, 0, 1.56769, -129.371, -94.5696)" x1="87.396973" y1="141.97266" x2="269.33331" y2="141.97276"/><linearGradient inkscape:collect="always" xlink:href="#XMLID_21_" id="linearGradient3315" gradientUnits="userSpaceOnUse" gradientTransform="matrix(-1.56769, 0, 0, -1.56769, 385.371, 350.53)" x1="89.159668" y1="141.95996" x2="269.1944" y2="141.95996"/></defs>
	
		
	<g style="display: inline;" id="layer2"/><g id="g2960" inkscape:label="ombre" style="display: inline;" sodipodi:insensitive="true"><path id="path5924" style="fill: url(#linearGradient1945) rgb(0, 0, 0);" d="M 248.35974,206.96001 C 168.11962,164.50832 87.879509,258.33713 7.6401612,215.88544 C 7.6401612,160.27066 7.6401612,104.24666 7.6401612,48.63112 C 87.981616,90.163083 169.3449,-2.0312598 248.35974,40.114878 C 248.35974,95.729664 248.35974,151.34523 248.35974,206.96001 z " sodipodi:nodetypes="ccccc"/></g><path d="M 248.36054,32.474164 C 167.27228,-10.427626 86.184026,85.849941 5.094999,40.006433 C 2.2811141,38.41884 -6.7762636e-21,39.214167 -6.7762636e-21,42.031114 C -6.7762636e-21,99.344493 -6.7762636e-21,156.65787 -6.7762636e-21,213.97202 C -6.7762636e-21,216.78284 2.2811141,220.54745 5.094999,222.13351 C 87.032163,268.45698 168.96857,169.67094 250.90496,215.9944 C 253.71885,217.58047 255.99996,216.78897 255.99996,213.97202 C 255.99996,156.65787 255.99996,99.344493 255.99996,42.031114 C 255.99996,39.220291 253.71885,35.452625 250.90496,33.865796 C 250.05683,33.386609 249.20867,32.922731 248.36054,32.474164 z " style="fill: rgb(97, 97, 97);" id="path81"/><path d="M 7.6394202,218.393 C 7.6394202,216.53978 22.53098,228.5983 44.94866,229.44798 C 67.36482,231.79952 97.30407,222.94221 127.401,214.02137 C 157.49792,205.12196 187.74948,196.13146 210.78949,198.46157 C 233.82952,199.31507 249.65723,211.48918 250.90496,210.86073 C 250.90496,205.98465 250.90496,43.798199 250.90496,38.920589 C 249.67025,39.721269 233.99869,27.439999 211.10794,26.524489 C 188.21794,24.125489 158.10877,33.093789 127.99959,42.031469 C 97.89042,50.961499 67.78277,59.888469 44.89202,57.469569 C 22.00127,56.537209 6.3304602,44.258999 5.0950002,45.059689 C 5.0950002,49.937289 5.0950002,212.12529 5.0950002,217.00136 C 6.3687502,217.72397 7.6394202,218.39376 7.6394202,218.393 z " style="fill: url(#linearGradient3315) rgb(0, 0, 0);" id="path136"/><path d="M 248.36054,206.9618 C 168.12042,164.51011 87.880316,258.33892 7.6409684,215.88723 C 7.6409684,160.27245 7.6409684,104.65688 7.6409684,49.041331 C 87.880316,91.492253 168.12042,-2.335794 248.36054,40.116663 C 248.36054,95.731449 248.36054,151.34702 248.36054,206.9618 z " style="fill: rgb(23, 199, 255); fill-opacity: 1;" id="path151"/><path d="M 87.803765,56.178616 C 61.082581,62.202138 34.362148,63.178121 7.6409684,49.041331 C 7.6409684,104.65688 7.6409684,160.27245 7.6409684,215.88723 C 34.362148,230.02402 61.082581,229.04727 87.803765,223.02453 C 87.803765,167.40821 87.803765,111.79341 87.803765,56.178616 z " style="fill: rgb(243, 0, 6); fill-opacity: 1;" id="path160"/><path d="M 168.20002,199.82452 C 194.91969,193.80024 221.64087,192.82503 248.36054,206.9618 C 248.36054,151.34702 248.36054,95.731449 248.36054,40.116663 C 221.64087,25.979111 194.91969,26.955092 168.20002,32.977846 C 168.20002,88.593402 168.20002,144.2082 168.20002,199.82452 z " style="fill: rgb(243, 0, 6); fill-opacity: 1;" id="path169"/><polyline id="_x3C_Slice_x3E_" points="0,256 0,0 256,0 256,256" style="fill: none;" transform="translate(3.30363e-05)"/><circle style="fill: rgb(255, 238, 11); fill-opacity: 1;" sodipodi:ry="11" sodipodi:rx="11" sodipodi:cy="41" sodipodi:cx="40" id="crescent" cx="40" cy="41" r="11" transform="matrix(1.41647, 0, 0, 1.41647, -9.16863, 59.3307)"/><circle style="fill: rgb(220, 23, 28);" sodipodi:ry="12" sodipodi:rx="12" sodipodi:cy="36" sodipodi:cx="40" id="crescent_overlay" cx="40" cy="36" r="12" transform="matrix(1.41647, 0, 0, 1.41647, -9.16863, 59.3307)"/><path style="fill: rgb(255, 238, 11); fill-opacity: 1;" id="flame" d="M 40.407733,91.90943 C 40.407733,95.820897 43.578603,98.991767 47.49007,98.991767 C 51.401537,98.991767 54.572407,95.820897 54.572407,91.90943 C 54.572407,89.076494 52.801823,88.722378 52.801823,87.660027 C 52.801823,86.597676 53.864174,85.181209 51.739472,83.410624 C 52.801823,85.181209 51.031239,85.535326 51.031239,87.30591 C 51.031239,89.076494 51.739472,89.076494 51.739472,90.492962 C 51.739472,91.275256 51.105299,91.90943 50.323005,91.90943 C 49.540711,91.90943 48.906537,91.275256 48.906537,90.492962 C 48.906537,89.076494 50.323005,87.660027 50.323005,85.535326 C 50.323005,83.410624 49.968888,82.702391 48.906537,80.931806 C 47.844187,79.161222 46.073602,77.744754 47.49007,76.328287 C 45.365369,77.036521 46.427719,79.869456 46.427719,81.64004 C 46.427719,83.410624 45.011252,84.472975 45.011252,86.597676 C 45.011252,88.722378 46.073602,89.076494 46.073602,90.492962 C 46.073602,91.275256 45.439429,91.90943 44.657135,91.90943 C 43.874841,91.90943 43.240668,91.275256 43.240668,90.492962 C 43.240668,89.076494 43.948901,89.076494 43.948901,87.30591 C 43.948901,85.535326 42.178317,85.181209 43.240668,83.410624 C 41.115966,85.181209 42.178317,86.597676 42.178317,87.660027 C 42.178317,88.722378 40.407733,89.076494 40.407733,91.90943"/><circle style="fill: rgb(255, 238, 11); fill-opacity: 1;" sodipodi:ry="8" sodipodi:rx="8" sodipodi:cy="38" sodipodi:cx="40" id="moon" cx="40" cy="38" r="8" transform="matrix(1.41647, 0, 0, 1.41647, -9.16863, 59.3307)"/><circle style="fill: rgb(255, 238, 11); fill-opacity: 1;" sodipodi:ry="10" sodipodi:rx="10" sodipodi:cy="78" sodipodi:cx="40" id="yinyang" cx="40" cy="78" r="10" transform="matrix(1.41647, 0, 0, 1.41647, -9.16863, 59.3307)"/><path style="fill: rgb(255, 238, 11); fill-opacity: 1;" id="cornered_stuff" d="M 16.327785,135.81992 L 30.49246,135.81992 L 30.49246,203.81036 L 16.327785,203.81036 L 16.327785,135.81992 z M 64.48768,135.81992 L 78.652355,135.81992 L 78.652355,203.81036 L 64.48768,203.81036 L 64.48768,135.81992 z M 33.325395,135.81992 L 47.49007,144.31873 L 61.654745,135.81992 L 33.325395,135.81992 z M 33.325395,147.15166 L 33.325395,152.81753 L 61.654745,152.81753 L 61.654745,147.15166 L 33.325395,147.15166 z M 33.325395,186.81275 L 33.325395,192.47862 L 61.654745,192.47862 L 61.654745,186.81275 L 33.325395,186.81275 z M 33.325395,195.31156 L 47.49007,203.81036 L 61.654745,195.31156 L 33.325395,195.31156 z "/><circle transform="matrix(1.41647, 0, 0, 1.41647, -9.5086, 61.7105)" r="2" cy="72.699997" cx="40" id="yinyang_top" sodipodi:cx="40" sodipodi:cy="72.699997" sodipodi:rx="2" sodipodi:ry="2" style="fill: rgb(220, 23, 28);"/><circle transform="matrix(1.41647, 0, 0, 1.41647, -9.5086, 61.7105)" r="2" cy="83.300003" cx="40" id="yinyang_bottom" sodipodi:cx="40" sodipodi:cy="83.300003" sodipodi:rx="2" sodipodi:ry="2" style="fill: rgb(220, 23, 28);"/><path d="M 47.1501,157.32205 C 51.25714,157.32205 54.58655,160.65147 54.58655,164.7585 C 54.58655,168.86554 51.25714,172.19495 47.1501,172.19495 C 43.04306,172.19495 39.71365,175.52436 39.71365,179.63142 C 39.71365,183.73845 43.04306,187.06786 47.1501,187.06786" id="yinyang_center" style="fill: none; stroke: rgb(220, 23, 28); stroke-width: 1.41647;"/><g id="layer4" inkscape:label="Ombre" style="display: inline;" sodipodi:insensitive="true" transform="translate(3.30363e-05)"><path id="path3127" style="opacity: 1; fill: url(#linearGradient3129) rgb(0, 0, 0); display: inline;" d="M 248.35974,206.96001 C 168.11962,164.50832 87.879509,258.33713 7.6401612,215.88544 C 7.6401612,160.27066 7.6401612,104.24666 7.6401612,48.63112 C 87.981616,90.163083 169.3449,-2.0312598 248.35974,40.114878 C 248.35974,95.729664 248.35974,151.34523 248.35974,206.96001 z " sodipodi:nodetypes="ccccc"/></g></svg>